<svg width="215" height="264" viewBox="0 0 215 264" fill="none" xmlns="http://www.w3.org/2000/svg">
<path d="M82.3619 156.042C89.0883 157.056 110.276 156.38 123.393 155.028C123.393 156.155 122.518 158.948 119.021 161.111C114.648 163.815 112.294 163.477 107.586 163.477C102.877 163.477 58.1469 162.801 53.7748 161.111C49.4026 159.422 58.8195 155.028 62.8554 153.338C66.8912 151.649 75.6355 155.028 82.3619 156.042Z" fill="white"/>
<path d="M4.67189 210.791C-1.04553 209.439 22.1605 193.893 37.2949 185.106H54.111C57.0706 185.106 63.1916 198.174 65.8822 204.708C64.9853 205.497 59.8284 207.817 46.3757 210.791C29.5597 214.509 10.3893 212.143 4.67189 210.791Z" fill="white"/>
<path fill-rule="evenodd" clip-rule="evenodd" d="M175.501 108.469C177.093 107.64 179.048 108.077 180.14 109.508C188.269 120.163 193.491 133.122 195.002 145.624C196.508 158.087 194.359 170.512 187.167 179.641C185.972 181.158 184.735 182.792 183.438 184.505C178.054 191.616 171.647 200.076 163.008 207.092C152.083 215.964 137.566 222.62 116.666 222.62C100.311 222.62 88.1961 220.261 79.6293 217.21C73.7189 215.105 69.3351 212.609 66.447 210.212C65.8874 210.574 65.2625 210.934 64.571 211.289C61.8028 212.709 57.7194 214.178 51.8593 215.44C44.3853 217.05 33.7127 217.551 24.4222 217.423C19.7413 217.359 15.3195 217.133 11.7159 216.789C8.29826 216.463 5.12746 215.992 3.29808 215.257C1.97904 214.727 0.140958 213.428 0.00701852 210.926C-0.0946577 209.027 0.931968 207.519 1.55824 206.715C2.9664 204.905 5.4818 202.835 8.42492 200.622C11.4917 198.315 15.5673 195.466 20.31 192.152C22.2294 190.81 24.258 189.392 26.3732 187.903C25.7735 187.87 25.1933 187.837 24.634 187.804C23.1181 187.714 21.8106 186.703 21.3366 185.253C20.8625 183.803 21.3182 182.21 22.4858 181.234C28.2056 176.455 38.1792 167.945 48.6355 158.668C52.5452 155.199 56.5193 151.625 60.3613 148.101C65.2887 143.582 69.9879 139.155 74.0509 135.141C94.8044 114.64 117.044 112.129 126.277 111.772C128.233 111.697 131.311 111.702 134.92 111.708C135.523 111.71 136.141 111.711 136.771 111.711C141.228 111.717 146.405 111.706 151.582 111.56C156.769 111.413 161.885 111.132 166.226 110.608C170.712 110.066 173.879 109.314 175.501 108.469ZM38.4294 188.433C33.209 192.198 28.5001 195.487 24.3712 198.37C19.7874 201.571 15.9186 204.272 12.8585 206.574C11.574 207.54 10.5229 208.371 9.68383 209.078C10.4743 209.184 11.385 209.289 12.4158 209.387C15.7803 209.709 19.9977 209.927 24.5235 209.989C33.6466 210.115 43.6576 209.602 50.309 208.17C55.7492 206.999 59.1769 205.708 61.2068 204.667C61.4769 204.528 61.718 204.396 61.9322 204.272L53.5808 188.757C48.3636 188.715 43.1928 188.594 38.4294 188.433ZM61.9882 188.748L69.6711 203.022C70.8805 204.533 74.6109 207.535 82.1011 210.202C89.7448 212.925 101.004 215.185 116.666 215.185C135.789 215.185 148.682 209.167 158.357 201.31C166.229 194.917 171.96 187.361 177.315 180.301C178.68 178.501 180.02 176.734 181.366 175.026C186.954 167.932 189.009 157.715 187.657 146.52C186.412 136.218 182.308 125.442 175.905 116.274C173.342 117.078 170.265 117.609 167.109 117.99C162.443 118.553 157.07 118.843 151.79 118.992C146.498 119.141 141.229 119.152 136.762 119.146C136.118 119.146 135.493 119.145 134.889 119.144C131.248 119.137 128.354 119.133 126.562 119.202C118.306 119.521 98.17 121.741 79.2379 140.443C76.4397 143.208 73.359 146.151 70.1258 149.172C73.2615 149.941 77.4449 150.764 82.4429 151.334C88.31 152.004 94.6654 151.774 102.136 151.293C103.768 151.188 105.451 151.071 107.188 150.95C112.916 150.553 119.227 150.115 126.182 149.928C128.188 147.876 129.969 145.993 131.437 144.396C132.822 142.887 135.163 142.793 136.664 144.185C138.166 145.578 138.259 147.93 136.873 149.439C135.091 151.379 132.882 153.704 130.391 156.227C127.333 159.324 123.838 162.732 120.174 166.105C115.479 170.426 110.465 174.726 105.706 178.247C101.025 181.711 96.2996 184.643 92.2278 185.945C88.4839 187.142 82.8627 187.834 76.637 188.242C72.1225 188.537 67.1196 188.693 61.9882 188.748ZM118.311 157.69C114.632 157.887 111.143 158.129 107.793 158.362C106.03 158.484 104.304 158.604 102.609 158.713C95.114 159.195 88.1848 159.472 81.6081 158.722C73.5361 157.801 67.2742 156.239 63.7089 155.093C62.3029 156.376 60.8841 157.661 59.4616 158.942C60.2491 159.005 61.0839 159.064 61.9624 159.12C66.9436 159.437 73.1759 159.634 79.8329 159.744C92.5085 159.953 106.587 159.845 116.202 159.673C116.913 159.011 117.617 158.349 118.311 157.69ZM107.676 167.228C99.1464 167.316 89.0589 167.332 79.7114 167.178C73.0054 167.067 66.6425 166.868 61.4949 166.54C58.9231 166.377 56.6166 166.179 54.7031 165.938C53.7843 165.822 52.8944 165.69 52.0762 165.531C45.6602 171.205 39.4924 176.537 34.4428 180.844C35.4141 180.883 36.4102 180.922 37.4272 180.958C43.1282 181.163 49.4765 181.312 55.8054 181.334C62.9668 181.359 70.0645 181.221 76.1557 180.822C82.3452 180.417 87.1743 179.759 89.9844 178.86C92.8488 177.944 96.7685 175.627 101.318 172.26C103.385 170.731 105.522 169.031 107.676 167.228ZM63.3406 203.264C63.3526 203.249 63.3596 203.241 63.36 203.241C63.3605 203.242 63.3545 203.249 63.3406 203.264ZM7.20633 211.56C7.20444 211.56 7.21365 211.54 7.23956 211.5C7.22117 211.539 7.20821 211.559 7.20633 211.56ZM203.723 259.522C204.059 261.547 202.697 263.463 200.682 263.8C200.36 263.854 199.97 263.867 199.827 263.872L199.8 263.873C199.552 263.881 199.23 263.889 198.846 263.896C198.076 263.91 197.001 263.922 195.661 263.933C192.976 263.954 189.187 263.97 184.556 263.981C175.29 264.002 162.63 264.004 148.639 263.994C120.657 263.975 87.3424 263.907 65.2001 263.851C63.157 263.845 61.5048 262.177 61.51 260.124C61.5152 258.071 63.1757 256.41 65.2189 256.416C87.3586 256.472 120.669 256.54 148.645 256.559C162.633 256.569 175.285 256.567 184.539 256.546C189.167 256.535 192.939 256.519 195.602 256.498C196.935 256.487 197.98 256.475 198.712 256.462C199.08 256.455 199.355 256.449 199.541 256.442C199.61 256.44 199.657 256.437 199.686 256.436C201.618 256.23 203.399 257.571 203.723 259.522ZM33.5955 260.133C33.5955 258.08 35.2518 256.416 37.295 256.416H47.3846C49.4278 256.416 51.0841 258.08 51.0841 260.133C51.0841 262.186 49.4278 263.851 47.3846 263.851H37.295C35.2518 263.851 33.5955 262.186 33.5955 260.133Z" fill="white"/>
<path fill-rule="evenodd" clip-rule="evenodd" d="M177.54 111.769C169.468 100.955 164.424 84.0569 164.087 72.9043C163.944 68.1367 164.968 62.8751 165.872 58.2282C167.083 52.0048 168.08 46.8841 165.769 45.5296C165.069 45.1194 164.117 44.6584 162.997 44.1166C157.66 41.5339 148.531 37.1159 144.917 27.6179C140.603 16.2784 147.424 14.8128 152.129 13.8018C152.192 13.7883 152.254 13.7749 152.316 13.7616C153.518 13.5029 154.763 13.1121 155.946 12.741C159.399 11.6575 162.32 10.7409 162.069 13.7616L162.064 13.8318C161.726 17.9061 161.088 25.5959 165.769 26.604C170.477 27.6178 175.186 28.6317 174.85 34.0391C174.737 35.8511 174.284 37.8908 173.871 39.7513C173.052 43.4427 172.39 46.4285 174.85 45.5296C176.032 45.0977 179.79 44.8727 184.51 44.5902C194.562 43.9886 208.977 43.1258 212.181 39.4464C216.889 34.0391 214.872 30.3215 205.455 27.6179C204.24 27.2692 203.077 26.9656 201.957 26.6736C194.395 24.7007 188.867 23.2583 183.594 12.0718C177.54 -0.770649 159.379 -0.770649 154.334 0.581184C149.289 1.93302 138.527 6.66445 134.155 17.1412C129.783 27.6179 127.765 113.459 131.464 114.473C134.424 115.284 163.415 113.009 177.54 111.769ZM170.814 22.2105C173.228 22.2105 175.186 20.3948 175.186 18.155C175.186 15.9152 173.228 14.0995 170.814 14.0995C168.399 14.0995 166.442 15.9152 166.442 18.155C166.442 20.3948 168.399 22.2105 170.814 22.2105Z" fill="white"/>
<path fill-rule="evenodd" clip-rule="evenodd" d="M132.473 214.847C135.445 214.847 137.855 217.268 137.855 220.254V248.612L156.555 249.322C159.525 249.435 161.842 251.946 161.729 254.93C161.617 257.914 159.119 260.242 156.149 260.129L127.092 259.025V220.254C127.092 217.268 129.501 214.847 132.473 214.847ZM108.539 216.971C111.507 217.127 113.787 219.67 113.632 222.653L112.246 249.319H119.021C121.993 249.319 124.402 251.739 124.402 254.726C124.402 257.712 121.993 260.133 119.021 260.133H100.907L102.885 222.089C103.04 219.106 105.571 216.815 108.539 216.971Z" fill="white"/>
</svg>
